<?xml version='1.0' encoding='utf-8'?>
<svg xmlns:xlink="http://www.w3.org/1999/xlink" xmlns="http://www.w3.org/2000/svg" width="330.33948mm" height="349.15225mm" viewBox="0 0 330.33948 349.15225" version="1.1" id="svg8"> <defs id="defs2"> <linearGradient id="linearGradient1655"> <stop style="stop-color:#28170b;stop-opacity:1" offset="0" id="stop1651"/> <stop style="stop-color:#c87137;stop-opacity:1" offset="1" id="stop1653"/> </linearGradient> <linearGradient id="linearGradient1647"> <stop style="stop-color:#87de87;stop-opacity:1" offset="0" id="stop1643"/> <stop style="stop-color:#217821;stop-opacity:1" offset="1" id="stop1645"/> </linearGradient> <linearGradient xlink:href="#linearGradient1647" id="linearGradient1649" x1="-453.0069" y1="471.45551" x2="-408.51846" y2="146.65591" gradientUnits="userSpaceOnUse"/> <linearGradient xlink:href="#linearGradient1655" id="linearGradient1657" x1="-418.04166" y1="496.57141" x2="-416.92758" y2="137.98915" gradientUnits="userSpaceOnUse"/> <linearGradient xlink:href="#linearGradient1655" id="linearGradient1758" gradientUnits="userSpaceOnUse" x1="-418.04166" y1="496.57141" x2="-416.92758" y2="137.98915"/> <linearGradient xlink:href="#linearGradient1655" id="linearGradient1760" gradientUnits="userSpaceOnUse" x1="-418.04166" y1="496.57141" x2="-416.92758" y2="137.98915"/> <linearGradient xlink:href="#linearGradient1655" id="linearGradient1762" gradientUnits="userSpaceOnUse" x1="-418.04166" y1="496.57141" x2="-416.92758" y2="137.98915"/> <linearGradient xlink:href="#linearGradient1655" id="linearGradient1764" gradientUnits="userSpaceOnUse" x1="-418.04166" y1="496.57141" x2="-416.92758" y2="137.98915"/> <linearGradient xlink:href="#linearGradient1655" id="linearGradient1766" gradientUnits="userSpaceOnUse" x1="-418.04166" y1="496.57141" x2="-416.92758" y2="137.98915"/> <linearGradient xlink:href="#linearGradient1655" id="linearGradient1768" gradientUnits="userSpaceOnUse" x1="-418.04166" y1="496.57141" x2="-416.92758" y2="137.98915"/> <linearGradient xlink:href="#linearGradient1655" id="linearGradient1770" gradientUnits="userSpaceOnUse" x1="-418.04166" y1="496.57141" x2="-416.92758" y2="137.98915"/> <linearGradient xlink:href="#linearGradient1655" id="linearGradient1772" gradientUnits="userSpaceOnUse" x1="-418.04166" y1="496.57141" x2="-416.92758" y2="137.98915"/> <linearGradient xlink:href="#linearGradient1655" id="linearGradient1774" gradientUnits="userSpaceOnUse" x1="-418.04166" y1="496.57141" x2="-416.92758" y2="137.98915"/> <linearGradient xlink:href="#linearGradient1655" id="linearGradient1776" gradientUnits="userSpaceOnUse" x1="-418.04166" y1="496.57141" x2="-416.92758" y2="137.98915"/> <linearGradient xlink:href="#linearGradient1655" id="linearGradient1778" gradientUnits="userSpaceOnUse" x1="-418.04166" y1="496.57141" x2="-416.92758" y2="137.98915"/> <linearGradient xlink:href="#linearGradient1655" id="linearGradient1780" gradientUnits="userSpaceOnUse" x1="-418.04166" y1="496.57141" x2="-416.92758" y2="137.98915"/> <linearGradient xlink:href="#linearGradient1655" id="linearGradient1782" gradientUnits="userSpaceOnUse" x1="-418.04166" y1="496.57141" x2="-416.92758" y2="137.98915"/> <linearGradient xlink:href="#linearGradient1655" id="linearGradient1784" gradientUnits="userSpaceOnUse" x1="-418.04166" y1="496.57141" x2="-416.92758" y2="137.98915"/> <linearGradient xlink:href="#linearGradient1655" id="linearGradient1786" gradientUnits="userSpaceOnUse" x1="-418.04166" y1="496.57141" x2="-416.92758" y2="137.98915"/> <linearGradient xlink:href="#linearGradient1655" id="linearGradient1788" gradientUnits="userSpaceOnUse" x1="-418.04166" y1="496.57141" x2="-416.92758" y2="137.98915"/> <linearGradient xlink:href="#linearGradient1655" id="linearGradient1790" gradientUnits="userSpaceOnUse" x1="-418.04166" y1="496.57141" x2="-416.92758" y2="137.98915"/> <linearGradient xlink:href="#linearGradient1655" id="linearGradient1792" gradientUnits="userSpaceOnUse" x1="-418.04166" y1="496.57141" x2="-416.92758" y2="137.98915"/> <linearGradient xlink:href="#linearGradient1655" id="linearGradient1794" gradientUnits="userSpaceOnUse" x1="-418.04166" y1="496.57141" x2="-416.92758" y2="137.98915"/> <linearGradient xlink:href="#linearGradient1655" id="linearGradient1796" gradientUnits="userSpaceOnUse" x1="-418.04166" y1="496.57141" x2="-416.92758" y2="137.98915"/> <linearGradient xlink:href="#linearGradient1655" id="linearGradient1798" gradientUnits="userSpaceOnUse" x1="-418.04166" y1="496.57141" x2="-416.92758" y2="137.98915"/> <linearGradient xlink:href="#linearGradient1655" id="linearGradient1800" gradientUnits="userSpaceOnUse" x1="-418.04166" y1="496.57141" x2="-416.92758" y2="137.98915"/> <linearGradient xlink:href="#linearGradient1655" id="linearGradient1802" gradientUnits="userSpaceOnUse" x1="-418.04166" y1="496.57141" x2="-416.92758" y2="137.98915"/> <linearGradient xlink:href="#linearGradient1655" id="linearGradient1804" gradientUnits="userSpaceOnUse" x1="-418.04166" y1="496.57141" x2="-416.92758" y2="137.98915"/> <linearGradient xlink:href="#linearGradient1655" id="linearGradient1806" gradientUnits="userSpaceOnUse" x1="-418.04166" y1="496.57141" x2="-416.92758" y2="137.98915"/> <linearGradient xlink:href="#linearGradient1655" id="linearGradient1808" gradientUnits="userSpaceOnUse" x1="-418.04166" y1="496.57141" x2="-416.92758" y2="137.98915"/> <linearGradient xlink:href="#linearGradient1655" id="linearGradient1810" gradientUnits="userSpaceOnUse" x1="-418.04166" y1="496.57141" x2="-416.92758" y2="137.98915"/> <linearGradient xlink:href="#linearGradient1655" id="linearGradient1812" gradientUnits="userSpaceOnUse" x1="-418.04166" y1="496.57141" x2="-416.92758" y2="137.98915"/> <linearGradient xlink:href="#linearGradient1655" id="linearGradient1814" gradientUnits="userSpaceOnUse" x1="-418.04166" y1="496.57141" x2="-416.92758" y2="137.98915"/> <linearGradient xlink:href="#linearGradient1655" id="linearGradient1816" gradientUnits="userSpaceOnUse" x1="-418.04166" y1="496.57141" x2="-416.92758" y2="137.98915"/> <linearGradient xlink:href="#linearGradient1655" id="linearGradient1818" gradientUnits="userSpaceOnUse" x1="-418.04166" y1="496.57141" x2="-416.92758" y2="137.98915"/> <linearGradient xlink:href="#linearGradient1655" id="linearGradient1820" gradientUnits="userSpaceOnUse" x1="-418.04166" y1="496.57141" x2="-416.92758" y2="137.98915"/> <linearGradient xlink:href="#linearGradient1655" id="linearGradient1822" gradientUnits="userSpaceOnUse" x1="-418.04166" y1="496.57141" x2="-416.92758" y2="137.98915"/> <linearGradient xlink:href="#linearGradient1655" id="linearGradient1824" gradientUnits="userSpaceOnUse" x1="-418.04166" y1="496.57141" x2="-416.92758" y2="137.98915"/> <linearGradient xlink:href="#linearGradient1655" id="linearGradient1826" gradientUnits="userSpaceOnUse" x1="-418.04166" y1="496.57141" x2="-416.92758" y2="137.98915"/> <linearGradient xlink:href="#linearGradient1655" id="linearGradient1828" gradientUnits="userSpaceOnUse" x1="-418.04166" y1="496.57141" x2="-416.92758" y2="137.98915"/> <linearGradient xlink:href="#linearGradient1655" id="linearGradient1830" gradientUnits="userSpaceOnUse" x1="-418.04166" y1="496.57141" x2="-416.92758" y2="137.98915"/> <linearGradient xlink:href="#linearGradient1655" id="linearGradient1832" gradientUnits="userSpaceOnUse" x1="-418.04166" y1="496.57141" x2="-416.92758" y2="137.98915"/> <linearGradient xlink:href="#linearGradient1655" id="linearGradient1834" gradientUnits="userSpaceOnUse" x1="-418.04166" y1="496.57141" x2="-416.92758" y2="137.98915"/> <linearGradient xlink:href="#linearGradient1655" id="linearGradient1836" gradientUnits="userSpaceOnUse" x1="-418.04166" y1="496.57141" x2="-416.92758" y2="137.98915"/> <linearGradient xlink:href="#linearGradient1655" id="linearGradient1838" gradientUnits="userSpaceOnUse" x1="-418.04166" y1="496.57141" x2="-416.92758" y2="137.98915"/> <linearGradient xlink:href="#linearGradient1655" id="linearGradient1840" gradientUnits="userSpaceOnUse" x1="-418.04166" y1="496.57141" x2="-416.92758" y2="137.98915"/> <linearGradient xlink:href="#linearGradient1655" id="linearGradient1842" gradientUnits="userSpaceOnUse" x1="-418.04166" y1="496.57141" x2="-416.92758" y2="137.98915"/> <linearGradient xlink:href="#linearGradient1655" id="linearGradient1844" gradientUnits="userSpaceOnUse" x1="-418.04166" y1="496.57141" x2="-416.92758" y2="137.98915"/> <linearGradient xlink:href="#linearGradient1655" id="linearGradient1846" gradientUnits="userSpaceOnUse" x1="-418.04166" y1="496.57141" x2="-416.92758" y2="137.98915"/> <linearGradient xlink:href="#linearGradient1655" id="linearGradient1848" gradientUnits="userSpaceOnUse" x1="-418.04166" y1="496.57141" x2="-416.92758" y2="137.98915"/> <linearGradient xlink:href="#linearGradient1655" id="linearGradient1850" gradientUnits="userSpaceOnUse" x1="-418.04166" y1="496.57141" x2="-416.92758" y2="137.98915"/> <linearGradient xlink:href="#linearGradient1655" id="linearGradient1852" gradientUnits="userSpaceOnUse" x1="-418.04166" y1="496.57141" x2="-416.92758" y2="137.98915"/> <linearGradient xlink:href="#linearGradient1655" id="linearGradient1854" gradientUnits="userSpaceOnUse" x1="-418.04166" y1="496.57141" x2="-416.92758" y2="137.98915"/> <linearGradient xlink:href="#linearGradient1655" id="linearGradient1856" gradientUnits="userSpaceOnUse" x1="-418.04166" y1="496.57141" x2="-416.92758" y2="137.98915"/> <linearGradient xlink:href="#linearGradient1655" id="linearGradient1858" gradientUnits="userSpaceOnUse" x1="-418.04166" y1="496.57141" x2="-416.92758" y2="137.98915"/> <linearGradient xlink:href="#linearGradient1655" id="linearGradient1860" gradientUnits="userSpaceOnUse" x1="-418.04166" y1="496.57141" x2="-416.92758" y2="137.98915"/> <linearGradient xlink:href="#linearGradient1655" id="linearGradient1862" gradientUnits="userSpaceOnUse" x1="-418.04166" y1="496.57141" x2="-416.92758" y2="137.98915"/> <linearGradient xlink:href="#linearGradient1655" id="linearGradient1864" gradientUnits="userSpaceOnUse" x1="-418.04166" y1="496.57141" x2="-416.92758" y2="137.98915"/> <linearGradient xlink:href="#linearGradient1655" id="linearGradient1866" gradientUnits="userSpaceOnUse" x1="-418.04166" y1="496.57141" x2="-416.92758" y2="137.98915"/> <linearGradient xlink:href="#linearGradient1655" id="linearGradient1868" gradientUnits="userSpaceOnUse" x1="-418.04166" y1="496.57141" x2="-416.92758" y2="137.98915"/> <linearGradient xlink:href="#linearGradient1655" id="linearGradient1870" gradientUnits="userSpaceOnUse" x1="-418.04166" y1="496.57141" x2="-416.92758" y2="137.98915"/> <linearGradient xlink:href="#linearGradient1655" id="linearGradient1872" gradientUnits="userSpaceOnUse" x1="-418.04166" y1="496.57141" x2="-416.92758" y2="137.98915"/> <linearGradient xlink:href="#linearGradient1655" id="linearGradient1874" gradientUnits="userSpaceOnUse" x1="-418.04166" y1="496.57141" x2="-416.92758" y2="137.98915"/> <linearGradient xlink:href="#linearGradient1655" id="linearGradient1876" gradientUnits="userSpaceOnUse" x1="-418.04166" y1="496.57141" x2="-416.92758" y2="137.98915"/> <linearGradient xlink:href="#linearGradient1655" id="linearGradient1878" gradientUnits="userSpaceOnUse" x1="-418.04166" y1="496.57141" x2="-416.92758" y2="137.98915"/> <linearGradient xlink:href="#linearGradient1655" id="linearGradient1880" gradientUnits="userSpaceOnUse" x1="-418.04166" y1="496.57141" x2="-416.92758" y2="137.98915"/> <linearGradient xlink:href="#linearGradient1655" id="linearGradient1882" gradientUnits="userSpaceOnUse" x1="-418.04166" y1="496.57141" x2="-416.92758" y2="137.98915"/> <linearGradient xlink:href="#linearGradient1655" id="linearGradient1884" gradientUnits="userSpaceOnUse" x1="-418.04166" y1="496.57141" x2="-416.92758" y2="137.98915"/> <linearGradient xlink:href="#linearGradient1655" id="linearGradient1886" gradientUnits="userSpaceOnUse" x1="-418.04166" y1="496.57141" x2="-416.92758" y2="137.98915"/> <linearGradient xlink:href="#linearGradient1655" id="linearGradient1888" gradientUnits="userSpaceOnUse" x1="-418.04166" y1="496.57141" x2="-416.92758" y2="137.98915"/> <linearGradient xlink:href="#linearGradient1655" id="linearGradient1890" gradientUnits="userSpaceOnUse" x1="-418.04166" y1="496.57141" x2="-416.92758" y2="137.98915"/> <linearGradient xlink:href="#linearGradient1655" id="linearGradient1892" gradientUnits="userSpaceOnUse" x1="-418.04166" y1="496.57141" x2="-416.92758" y2="137.98915"/> <linearGradient xlink:href="#linearGradient1655" id="linearGradient1894" gradientUnits="userSpaceOnUse" x1="-418.04166" y1="496.57141" x2="-416.92758" y2="137.98915"/> <linearGradient xlink:href="#linearGradient1655" id="linearGradient1896" gradientUnits="userSpaceOnUse" x1="-418.04166" y1="496.57141" x2="-416.92758" y2="137.98915"/> <linearGradient xlink:href="#linearGradient1655" id="linearGradient1898" gradientUnits="userSpaceOnUse" x1="-418.04166" y1="496.57141" x2="-416.92758" y2="137.98915"/> <linearGradient xlink:href="#linearGradient1655" id="linearGradient1900" gradientUnits="userSpaceOnUse" x1="-418.04166" y1="496.57141" x2="-416.92758" y2="137.98915"/> <linearGradient xlink:href="#linearGradient1655" id="linearGradient1902" gradientUnits="userSpaceOnUse" x1="-418.04166" y1="496.57141" x2="-416.92758" y2="137.98915"/> <linearGradient xlink:href="#linearGradient1655" id="linearGradient1904" gradientUnits="userSpaceOnUse" x1="-418.04166" y1="496.57141" x2="-416.92758" y2="137.98915"/> <linearGradient xlink:href="#linearGradient1655" id="linearGradient1906" gradientUnits="userSpaceOnUse" x1="-418.04166" y1="496.57141" x2="-416.92758" y2="137.98915"/> <linearGradient xlink:href="#linearGradient1655" id="linearGradient1908" gradientUnits="userSpaceOnUse" x1="-418.04166" y1="496.57141" x2="-416.92758" y2="137.98915"/> <linearGradient xlink:href="#linearGradient1655" id="linearGradient1910" gradientUnits="userSpaceOnUse" x1="-418.04166" y1="496.57141" x2="-416.92758" y2="137.98915"/> <linearGradient xlink:href="#linearGradient1655" id="linearGradient1912" gradientUnits="userSpaceOnUse" x1="-418.04166" y1="496.57141" x2="-416.92758" y2="137.98915"/> <linearGradient xlink:href="#linearGradient1655" id="linearGradient1914" gradientUnits="userSpaceOnUse" x1="-418.04166" y1="496.57141" x2="-416.92758" y2="137.98915"/> <linearGradient xlink:href="#linearGradient1655" id="linearGradient1916" gradientUnits="userSpaceOnUse" x1="-418.04166" y1="496.57141" x2="-416.92758" y2="137.98915"/> <linearGradient xlink:href="#linearGradient1655" id="linearGradient1918" gradientUnits="userSpaceOnUse" x1="-418.04166" y1="496.57141" x2="-416.92758" y2="137.98915"/> <linearGradient xlink:href="#linearGradient1655" id="linearGradient1920" gradientUnits="userSpaceOnUse" x1="-418.04166" y1="496.57141" x2="-416.92758" y2="137.98915"/> <linearGradient xlink:href="#linearGradient1655" id="linearGradient1922" gradientUnits="userSpaceOnUse" x1="-418.04166" y1="496.57141" x2="-416.92758" y2="137.98915"/> <linearGradient xlink:href="#linearGradient1655" id="linearGradient1924" gradientUnits="userSpaceOnUse" x1="-418.04166" y1="496.57141" x2="-416.92758" y2="137.98915"/> <linearGradient xlink:href="#linearGradient1655" id="linearGradient1926" gradientUnits="userSpaceOnUse" x1="-418.04166" y1="496.57141" x2="-416.92758" y2="137.98915"/> <linearGradient xlink:href="#linearGradient1655" id="linearGradient1928" gradientUnits="userSpaceOnUse" x1="-418.04166" y1="496.57141" x2="-416.92758" y2="137.98915"/> <linearGradient xlink:href="#linearGradient1655" id="linearGradient1930" gradientUnits="userSpaceOnUse" x1="-418.04166" y1="496.57141" x2="-416.92758" y2="137.98915"/> <linearGradient xlink:href="#linearGradient1655" id="linearGradient1932" gradientUnits="userSpaceOnUse" x1="-418.04166" y1="496.57141" x2="-416.92758" y2="137.98915"/> <linearGradient xlink:href="#linearGradient1655" id="linearGradient1934" gradientUnits="userSpaceOnUse" x1="-418.04166" y1="496.57141" x2="-416.92758" y2="137.98915"/> <linearGradient xlink:href="#linearGradient1655" id="linearGradient1936" gradientUnits="userSpaceOnUse" x1="-418.04166" y1="496.57141" x2="-416.92758" y2="137.98915"/> <linearGradient xlink:href="#linearGradient1655" id="linearGradient1938" gradientUnits="userSpaceOnUse" x1="-418.04166" y1="496.57141" x2="-416.92758" y2="137.98915"/> <linearGradient xlink:href="#linearGradient1655" id="linearGradient1940" gradientUnits="userSpaceOnUse" x1="-418.04166" y1="496.57141" x2="-416.92758" y2="137.98915"/> <linearGradient xlink:href="#linearGradient1655" id="linearGradient1942" gradientUnits="userSpaceOnUse" x1="-418.04166" y1="496.57141" x2="-416.92758" y2="137.98915"/> <linearGradient xlink:href="#linearGradient1655" id="linearGradient1944" gradientUnits="userSpaceOnUse" x1="-418.04166" y1="496.57141" x2="-416.92758" y2="137.98915"/> <linearGradient xlink:href="#linearGradient1655" id="linearGradient1946" gradientUnits="userSpaceOnUse" x1="-418.04166" y1="496.57141" x2="-416.92758" y2="137.98915"/> </defs> <metadata id="metadata5"> </metadata> <g id="layer1" transform="translate(256.51325,-110.93984)"> <g id="g1756" transform="translate(315.9881,-26.458333)"> <g id="g1437" style="color:black;font-style:normal;font-variant:normal;font-weight:normal;font-stretch:normal;font-size:medium;line-height:normal;font-family:sans-serif;font-variant-ligatures:normal;font-variant-position:normal;font-variant-caps:normal;font-variant-numeric:normal;font-variant-alternates:normal;font-feature-settings:normal;text-indent:0;text-align:start;text-decoration:none;text-decoration-line:none;text-decoration-style:solid;text-decoration-color:black;letter-spacing:normal;word-spacing:normal;text-transform:none;writing-mode:lr-tb;direction:ltr;text-orientation:mixed;dominant-baseline:auto;baseline-shift:baseline;text-anchor:start;white-space:normal;shape-padding:0;clip-rule:nonzero;display:inline;overflow:visible;visibility:visible;opacity:1;isolation:auto;mix-blend-mode:normal;color-interpolation:sRGB;color-interpolation-filters:linearRGB;solid-color:black;solid-opacity:1;vector-effect:none;fill:url(#linearGradient1657);fill-opacity:1;fill-rule:nonzero;stroke:none;stroke-width:0.26458332;stroke-linecap:butt;stroke-linejoin:miter;stroke-miterlimit:4;stroke-dasharray:none;stroke-dashoffset:0;stroke-opacity:1;color-rendering:auto;image-rendering:auto;shape-rendering:auto;text-rendering:auto;enable-background:accumulate"> <path style="fill:url(#linearGradient1758);fill-opacity:1" id="path1247" d="m -476.56259,156.53016 c -5.59849,1.83101 -2.79755,4.64932 -8.68307,7.64914 l 14.14214,14.14214 c 5.88552,-2.99982 3.08458,-5.81813 8.68307,-7.64914 z"/> <path style="fill:url(#linearGradient1760);fill-opacity:1" id="path1249" d="m -485.24566,164.1793 c -2.87922,2.70347 -8.66868,5.5422 -9.77168,7.37268 l 14.14214,14.14214 c 1.103,-1.83048 6.89246,-4.66921 9.77168,-7.37268 z"/> <path style="fill:url(#linearGradient1762);fill-opacity:1" id="path1251" d="m -495.01734,171.55198 c -2.81854,0.10918 -9.81717,-0.81886 -9.40187,4.22675 l 14.14214,14.14214 c -0.4153,-5.04561 6.58333,-4.11757 9.40187,-4.22675 z"/> <path style="fill:url(#linearGradient1764);fill-opacity:1" id="path1253" d="m -504.41921,175.77873 c 0.91705,-0.30745 1.42836,-0.28384 1.67357,-0.0386 l 14.14214,14.14213 c -0.24521,-0.24521 -0.75653,-0.26882 -1.67357,0.0386 z"/> <path style="fill:url(#linearGradient1766);fill-opacity:1" id="path1255" d="m -502.74564,175.7401 c 1.00225,1.00225 -2.44103,5.70661 -0.79571,6.63919 l 14.14214,14.14213 c -1.64533,-0.93257 1.79796,-5.63693 0.79571,-6.63919 z"/> <path style="fill:url(#linearGradient1768);fill-opacity:1" id="path1257" d="m -503.54135,182.37929 c 0.34007,0.19275 0.89753,0.22437 1.75655,0.0289 l 14.14214,14.14214 c -0.85903,0.1955 -1.41648,0.16388 -1.75655,-0.0289 z"/> <path style="fill:url(#linearGradient1770);fill-opacity:1" id="path1259" d="m -501.7848,182.40816 c -3.14156,4.36921 -7.6067,6.64119 -11.48685,10.78193 l 14.14214,14.14214 c 3.88015,-4.14074 8.34529,-6.41272 11.48685,-10.78193 z"/> <path style="fill:url(#linearGradient1772);fill-opacity:1" id="path1261" d="m -513.27165,193.19009 c -0.0697,-0.11414 -0.14336,-0.20888 -0.2205,-0.28602 l 14.14213,14.14214 c 0.0771,0.0771 0.15075,0.17187 0.22051,0.28602 z"/> <path style="fill:url(#linearGradient1774);fill-opacity:1" id="path1263" d="m -513.49215,192.90407 c -1.53332,-1.53332 -4.46349,3.88343 -6.29013,1.98454 l 14.14214,14.14214 c 1.82664,1.89889 4.7568,-3.51787 6.29012,-1.98454 z"/> <path style="fill:url(#linearGradient1776);fill-opacity:1" id="path1265" d="m -519.78228,194.88861 c -0.17111,-0.17788 -0.33254,-0.41996 -0.48223,-0.73796 l 14.14214,14.14214 c 0.14969,0.318 0.31112,0.56008 0.48223,0.73796 z"/> <path style="fill:url(#linearGradient1778);fill-opacity:1" id="path1267" d="m -520.26451,194.15065 c -0.20503,-0.95617 -0.52199,-2.17909 -1.14894,-2.80604 l 14.14213,14.14213 c 0.62695,0.62696 0.94391,1.84988 1.14895,2.80605 z"/> <path style="fill:url(#linearGradient1780);fill-opacity:1" id="path1269" d="m -521.41345,191.34461 c -0.73468,-0.73468 -1.89503,-0.651 -3.79976,1.63923 l 14.14214,14.14214 c 1.90472,-2.29023 3.06507,-2.37391 3.79975,-1.63924 z"/> <path style="fill:url(#linearGradient1782);fill-opacity:1" id="path1271" d="m -525.21321,192.98384 c -2.48842,-0.50289 -5.57678,4.8169 -9.64842,4.79887 l 14.14214,14.14214 c 4.07164,0.018 7.16,-5.30176 9.64842,-4.79887 z"/> <path style="fill:url(#linearGradient1784);fill-opacity:1" id="path1273" d="m -534.86163,197.78271 c -2.72286,0.62826 -3.32761,3.8098 -2.24963,4.88777 l 14.14213,14.14214 c -1.07797,-1.07798 -0.47323,-4.25951 2.24964,-4.88777 z"/> <path style="fill:url(#linearGradient1786);fill-opacity:1" id="path1275" d="m -537.11126,202.67048 c 0.52618,0.52618 1.45328,0.55117 2.73066,-0.46661 l 14.14214,14.14214 c -1.27739,1.01777 -2.20449,0.99278 -2.73067,0.46661 z"/> <path style="fill:url(#linearGradient1788);fill-opacity:1" id="path1277" d="m -534.3806,202.20387 c -1.51928,1.40818 -6.97722,3.29737 -6.11141,7.06894 l 14.14214,14.14214 c -0.86581,-3.77157 4.59213,-5.66076 6.11141,-7.06894 z"/> <path style="fill:url(#linearGradient1790);fill-opacity:1" id="path1279" d="m -540.49201,209.27281 c 0.22523,0.14174 0.42396,0.3002 0.59796,0.4742 l 14.14213,14.14214 c -0.174,-0.174 -0.37272,-0.33246 -0.59795,-0.4742 z"/> <path style="fill:url(#linearGradient1792);fill-opacity:1" id="path1281" d="m -539.89405,209.74701 c 3.23604,3.23604 -2.07968,11.84768 -4.46056,18.27995 l 14.14214,14.14214 c 2.38088,-6.43228 7.6966,-15.04391 4.46055,-18.27995 z"/> <path style="fill:url(#linearGradient1794);fill-opacity:1" id="path1283" d="m -544.35461,228.02696 c -1.89736,6.77774 -9.43193,5.23048 -14.49069,11.42475 l 14.14214,14.14214 c 5.05876,-6.19427 12.59333,-4.64701 14.49069,-11.42475 z"/> <path style="fill:url(#linearGradient1796);fill-opacity:1" id="path1285" d="m -558.8453,239.45171 c -6.70748,6.27353 -8.28976,13.83251 -13.36679,20.24182 l 14.14214,14.14214 c 5.07703,-6.40931 6.65931,-13.96829 13.36679,-20.24182 z"/> <path style="fill:url(#linearGradient1798);fill-opacity:1" id="path1287" d="m -572.21209,259.69353 c -1.39734,4.0409 2.80456,8.00543 1.26761,12.72661 l 14.14214,14.14214 c 1.53695,-4.72118 -2.66495,-8.68571 -1.26761,-12.72661 z"/> <path style="fill:url(#linearGradient1800);fill-opacity:1" id="path1289" d="m -570.94448,272.42014 c 5.13434,-4.05157 4.99178,5.56024 11.17173,-3.00147 l 14.14214,14.14214 c -6.17995,8.56171 -6.03739,-1.0501 -11.17173,3.00147 z"/> <path style="fill:url(#linearGradient1802);fill-opacity:1" id="path1291" d="m -559.77275,269.41867 c 0.39502,-0.14222 0.6544,-0.11282 0.81261,0.0454 l 14.14214,14.14213 c -0.15822,-0.15821 -0.41759,-0.18762 -0.81261,-0.0454 z"/> <path style="fill:url(#linearGradient1804);fill-opacity:1" id="path1293" d="m -558.96014,269.46407 c 0.98193,0.98193 -1.93298,6.92542 -0.50194,7.59262 l 14.14214,14.14214 c -1.43104,-0.6672 1.48387,-6.61069 0.50194,-7.59263 z"/> <path style="fill:url(#linearGradient1806);fill-opacity:1" id="path1295" d="m -559.46208,277.05669 c 0.49376,0.23021 1.50489,-0.16771 3.37196,-1.61428 l 14.14214,14.14214 c -1.86708,1.44656 -2.87821,1.84449 -3.37196,1.61428 z"/> <path style="fill:url(#linearGradient1808);fill-opacity:1" id="path1297" d="m -556.09012,275.44241 c 6.95227,-0.9673 12.43638,-5.09374 18.70976,-10.97277 l 14.14214,14.14214 c -6.27338,5.87903 -11.75749,10.00547 -18.70976,10.97277 z"/> <path style="fill:url(#linearGradient1810);fill-opacity:1" id="path1299" d="m -537.38036,264.46964 c 2.01988,-3.05628 10.26208,-8.14367 11.66267,-6.74308 l 14.14214,14.14213 c -1.40059,-1.40058 -9.64279,3.68681 -11.66267,6.74309 z"/> <path style="fill:url(#linearGradient1812);fill-opacity:1" id="path1301" d="m -525.71769,257.72656 c 0.44264,0.44263 0.20193,1.53329 -1.13449,3.54089 l 14.14214,14.14214 c 1.33642,-2.0076 1.57712,-3.09826 1.13449,-3.5409 z"/> <path style="fill:url(#linearGradient1814);fill-opacity:1" id="path1303" d="m -526.85218,261.26745 c -0.32146,3.80751 -0.4173,8.85797 1.91289,11.18815 l 14.14213,14.14214 c -2.33018,-2.33019 -2.23434,-7.38064 -1.91288,-11.18815 z"/> <path style="fill:url(#linearGradient1816);fill-opacity:1" id="path1305" d="m -524.93929,272.4556 c 1.24204,1.24204 3.17334,1.71122 6.12714,0.80735 l 14.14214,14.14214 c -2.9538,0.90386 -4.88511,0.43469 -6.12715,-0.80735 z"/> <path style="fill:url(#linearGradient1818);fill-opacity:1" id="path1307" d="m -518.81215,273.26295 c 6.9814,-2.63724 10.74806,5.56692 18.22684,0.81265 l 14.14214,14.14214 c -7.47878,4.75427 -11.24544,-3.44989 -18.22684,-0.81265 z"/> <path style="fill:url(#linearGradient1820);fill-opacity:1" id="path1309" d="m -500.58531,274.0756 c 2.00082,-0.11844 3.26286,0.27893 4.02305,1.03911 l 14.14213,14.14214 c -0.76018,-0.76018 -2.02222,-1.15756 -4.02304,-1.03911 z"/> <path style="fill:url(#linearGradient1822);fill-opacity:1" id="path1311" d="m -496.56226,275.11471 c 3.19396,3.19397 -2.47144,12.7927 0.57719,17.44785 l 14.14214,14.14214 c -3.04863,-4.65516 2.61676,-14.25389 -0.5772,-17.44785 z"/> <path style="fill:url(#linearGradient1824);fill-opacity:1" id="path1313" d="m -495.98507,292.56256 c 4.07258,1.37505 10.72437,-2.91512 13.065,-0.57449 l 14.14213,14.14214 c -2.34063,-2.34063 -8.99242,1.94953 -13.06499,0.57449 z"/> <path style="fill:url(#linearGradient1826);fill-opacity:1" id="path1315" d="m -482.92007,291.98807 c 0.74646,0.74646 1.05444,2.16731 0.70047,4.66138 l 14.14214,14.14214 c 0.35397,-2.49407 0.046,-3.91492 -0.70048,-4.66138 z"/> <path style="fill:url(#linearGradient1828);fill-opacity:1" id="path1317" d="m -482.2196,296.64945 c 1.00656,0.38531 1.78851,0.88348 2.38127,1.47623 l 14.14213,14.14214 c -0.59276,-0.59276 -1.37471,-1.09092 -2.38126,-1.47623 z"/> <path style="fill:url(#linearGradient1830);fill-opacity:1" id="path1319" d="m -479.83833,298.12568 c 4.98949,4.9895 -3.4259,16.68137 -4.12672,24.18854 l 14.14214,14.14214 c 0.70082,-7.50717 9.11621,-19.19905 4.12671,-24.18854 z"/> <path style="fill:url(#linearGradient1832);fill-opacity:1" id="path1321" d="m -483.96505,322.31422 c 2.12762,5.32803 -1.37204,15.69228 1.72797,18.79229 l 14.14213,14.14213 c -3.1,-3.10001 0.39965,-13.46425 -1.72796,-18.79228 z"/> <path style="fill:url(#linearGradient1834);fill-opacity:1" id="path1323" d="m -482.23708,341.10651 c 1.26497,1.26497 3.62884,1.32038 7.92235,-0.6695 l 14.14214,14.14214 c -4.29352,1.98988 -6.65738,1.93446 -7.92236,0.66949 z"/> <path style="fill:url(#linearGradient1836);fill-opacity:1" id="path1325" d="m -474.31473,340.43701 c 3.4127,-1.69271 5.4269,-1.3927 6.74212,-0.0775 l 14.14213,14.14214 c -1.31521,-1.31521 -3.32941,-1.61522 -6.74211,0.0775 z"/> <path style="fill:url(#linearGradient1838);fill-opacity:1" id="path1327" d="m -467.57261,340.35952 c 3.01722,3.01723 2.35578,11.37735 6.46135,13.27849 l 14.14214,14.14214 c -4.10557,-1.90114 -3.44414,-10.26127 -6.46136,-13.27849 z"/> <path style="fill:url(#linearGradient1840);fill-opacity:1" id="path1329" d="m -461.11126,353.63801 c 1.36683,0.63293 3.262,0.54997 5.99717,-0.68435 l 14.14214,14.14214 c -2.73517,1.23432 -4.63035,1.31727 -5.99717,0.68435 z"/> <path style="fill:url(#linearGradient1842);fill-opacity:1" id="path1331" d="m -455.11409,352.95366 c 0.39324,7.29439 -3.36486,15.77486 0.26291,19.40263 l 14.14214,14.14214 c -3.62777,-3.62778 0.13032,-12.10824 -0.26291,-19.40263 z"/> <path style="fill:url(#linearGradient1844);fill-opacity:1" id="path1333" d="m -454.85118,372.35629 c 0.8767,0.8767 2.18473,1.46999 4.08693,1.69466 l 14.14214,14.14214 c -1.9022,-0.22467 -3.21024,-0.81797 -4.08693,-1.69466 z"/> <path style="fill:url(#linearGradient1846);fill-opacity:1" id="path1335" d="m -450.76425,374.05095 c 3.54367,16.9648 -17.40122,21.4628 -24.39216,36.19904 l 14.14214,14.14214 c 6.99094,-14.73624 27.93583,-19.23424 24.39216,-36.19904 z"/> <path style="fill:url(#linearGradient1848);fill-opacity:1" id="path1337" d="m -475.15641,410.24999 c -3.57774,3.95705 -13.92325,17.93121 -11.79351,20.06094 l 14.14213,14.14214 c -2.12973,-2.12974 8.21578,-16.10389 11.79352,-20.06094 z"/> <path style="fill:url(#linearGradient1850);fill-opacity:1" id="path1339" d="m -486.94992,430.31093 c 0.63887,0.63887 2.40033,0.21192 5.80381,-1.87098 l 14.14214,14.14214 c -3.40349,2.08289 -5.16495,2.50985 -5.80382,1.87098 z"/> <path style="fill:url(#linearGradient1852);fill-opacity:1" id="path1341" d="m -481.14611,428.43995 c 1.27886,2.23758 2.80631,4.3912 4.41723,6.00212 l 14.14214,14.14214 c -1.61093,-1.61093 -3.13837,-3.76455 -4.41723,-6.00212 z"/> <path style="fill:url(#linearGradient1854);fill-opacity:1" id="path1343" d="m -476.72888,434.44207 c 2.36915,2.36915 4.91887,3.56453 7.124,2.12694 l 14.14214,14.14214 c -2.20513,1.43758 -4.75485,0.24221 -7.124,-2.12694 z"/> <path style="fill:url(#linearGradient1856);fill-opacity:1" id="path1345" d="m -469.60488,436.56901 c 6.00344,7.60773 13.51751,14.92276 19.98102,23.77727 l 14.14214,14.14214 c -6.46351,-8.85451 -13.97758,-16.16954 -19.98102,-23.77727 z"/> <path style="fill:url(#linearGradient1858);fill-opacity:1" id="path1347" d="m -449.62386,460.34628 c -4.83678,5.58799 -5.06134,9.43092 -3.38303,11.10924 l 14.14214,14.14213 c -1.67831,-1.67831 -1.45376,-5.52124 3.38303,-11.10923 z"/> <path style="fill:url(#linearGradient1860);fill-opacity:1" id="path1349" d="m -453.00689,471.45552 c 2.72009,2.72008 10.43855,-0.24577 11.6209,-10.68371 l 14.14214,14.14214 c -1.18235,10.43794 -8.90081,13.40379 -11.6209,10.6837 z"/> <path style="fill:url(#linearGradient1862);fill-opacity:1" id="path1351" d="m -441.38599,460.77181 c 2.54672,-8.23573 0.31325,-14.80417 7.07791,-10.6961 l 14.14214,14.14214 c -6.76466,-4.10807 -4.53119,2.46037 -7.07791,10.6961 z"/> <path style="fill:url(#linearGradient1864);fill-opacity:1" id="path1353" d="m -434.30808,450.07571 c 11.606,-9.45244 15.96596,-24.13897 22.3907,-36.8833 l 14.14214,14.14214 c -6.42474,12.74433 -10.7847,27.43086 -22.3907,36.8833 z"/> <path style="fill:url(#linearGradient1866);fill-opacity:1" id="path1355" d="m -411.91738,413.19241 c 12.49412,-9.37261 14.45354,-25.68244 12.35702,-38.83782 l 14.14214,14.14214 c 2.09652,13.15538 0.1371,29.46521 -12.35702,38.83782 z"/> <path style="fill:url(#linearGradient1868);fill-opacity:1" id="path1357" d="m -399.56036,374.35459 c 3.70428,-6.84357 -1.6817,-12.26866 6.34941,-11.26082 l 14.14214,14.14214 c -8.03111,-1.00784 -2.64513,4.41725 -6.34941,11.26082 z"/> <path style="fill:url(#linearGradient1870);fill-opacity:1" id="path1359" d="m -393.21095,363.09377 c 7.27698,-16.13901 24.69045,-18.83648 35.32604,-29.4527 l 14.14214,14.14214 c -10.63559,10.61622 -28.04906,13.31369 -35.32604,29.4527 z"/> <path style="fill:url(#linearGradient1872);fill-opacity:1" id="path1361" d="m -357.88491,333.64107 c 7.63905,-8.49981 21.46409,-4.14959 31.77787,-8.10829 l 14.14214,14.14214 c -10.31378,3.9587 -24.13882,-0.39152 -31.77787,8.10829 z"/> <path style="fill:url(#linearGradient1874);fill-opacity:1" id="path1363" d="m -326.10704,325.53278 c 5.91666,-9.37131 13.63426,-14.87945 15.59398,-25.20279 l 14.14214,14.14214 c -1.95972,10.32334 -9.67732,15.83148 -15.59398,25.20279 z"/> <path style="fill:url(#linearGradient1876);fill-opacity:1" id="path1365" d="m -310.51306,300.32999 c 10.0467,-11.96757 11.11153,-24.49445 14.55758,-37.00067 l 14.14214,14.14214 c -3.44605,12.50622 -4.51088,25.0331 -14.55758,37.00067 z"/> <path style="fill:url(#linearGradient1878);fill-opacity:1" id="path1367" d="m -295.95548,263.32932 c 5.21865,-13.61999 2.42508,-25.99049 2.25539,-38.13059 l 14.14214,14.14214 c 0.16969,12.1401 2.96326,24.5106 -2.25539,38.13059 z"/> <path style="fill:url(#linearGradient1880);fill-opacity:1" id="path1369" d="m -293.70009,225.19873 c -9.74683,-9.75547 16.68864,-16.79501 13.96636,-27.67581 l 14.14214,14.14214 c 2.72228,10.8808 -23.71319,17.92034 -13.96636,27.67581 z"/> <path style="fill:url(#linearGradient1882);fill-opacity:1" id="path1371" d="m -279.73373,197.52292 c 3.80709,-8.83395 14.30328,-16.18223 17.83956,-24.75934 l 14.14214,14.14214 c -3.53628,8.57711 -14.03247,15.92539 -17.83956,24.75934 z"/> <path style="fill:url(#linearGradient1884);fill-opacity:1" id="path1373" d="m -261.89417,172.76358 c 9.22422,-11.18324 5.8576,-22.6057 -1.61056,-30.07387 l 14.14213,14.14214 c 7.46816,7.46816 10.83478,18.89063 1.61057,30.07387 z"/> <path style="fill:url(#linearGradient1886);fill-opacity:1" id="path1375" d="m -263.50473,142.68971 c -1.04188,-1.04187 -2.16358,-2.00678 -3.34206,-2.88335 l 14.14214,14.14214 c 1.17847,0.87656 2.30018,1.84147 3.34205,2.88335 z"/> <path style="fill:url(#linearGradient1888);fill-opacity:1" id="path1377" d="m -266.84679,139.80636 c -10.90037,-0.86635 -24.5297,5.623 -33.58046,1.05873 l 14.14214,14.14214 c 9.05076,4.56427 22.68009,-1.92508 33.58046,-1.05873 z"/> <path style="fill:url(#linearGradient1890);fill-opacity:1" id="path1379" d="m -300.42725,140.86509 c -9.06093,-2.03256 -21.38852,-2.50636 -31.5339,4.22561 l 14.14214,14.14214 c 10.14538,-6.73197 22.47297,-6.25817 31.5339,-4.22561 z"/> <path style="fill:url(#linearGradient1892);fill-opacity:1" id="path1381" d="m -331.96115,145.0907 c -7.00149,2.25082 -15.8088,0.59036 -21.27097,3.99967 l 14.14214,14.14214 c 5.46217,-3.40931 14.26948,-1.74885 21.27097,-3.99967 z"/> <path style="fill:url(#linearGradient1894);fill-opacity:1" id="path1383" d="m -353.23212,149.09037 c -3.13101,0.21275 -8.24471,3.77472 -9.52614,6.3538 l 14.14214,14.14214 c 1.28143,-2.57908 6.39513,-6.14105 9.52614,-6.3538 z"/> <path style="fill:url(#linearGradient1896);fill-opacity:1" id="path1385" d="m -362.75826,155.44417 c 2.42464,-2.90063 2.60051,-4.75141 1.47924,-5.87268 l 14.14214,14.14214 c 1.12126,1.12126 0.9454,2.97205 -1.47924,5.87268 z"/> <path style="fill:url(#linearGradient1898);fill-opacity:1" id="path1387" d="m -361.27902,149.57149 c -2.39691,-2.39691 -10.72132,-1.46015 -15.67704,-0.31883 l 14.14214,14.14214 c 4.95571,-1.14132 13.28012,-2.07809 15.67704,0.31883 z"/> <path style="fill:url(#linearGradient1900);fill-opacity:1" id="path1389" d="m -376.95606,149.25266 c -6.76561,0.28743 -17.58474,1.94415 -20.76123,10.15851 l 14.14214,14.14214 c 3.17649,-8.21436 13.99562,-9.87108 20.76123,-10.15851 z"/> <path style="fill:url(#linearGradient1902);fill-opacity:1" id="path1391" d="m -397.71729,159.41117 c -0.41586,-0.0175 -0.68248,-0.10689 -0.8294,-0.25381 l 14.14213,14.14213 c 0.14693,0.14693 0.41354,0.2363 0.82941,0.25382 z"/> <path style="fill:url(#linearGradient1904);fill-opacity:1" id="path1393" d="m -398.54669,159.15736 c -1.21585,-1.21584 5.76414,-6.37332 4.18562,-7.37662 l 14.14213,14.14213 c 1.57853,1.0033 -5.40146,6.16078 -4.18562,7.37662 z"/> <path style="fill:url(#linearGradient1906);fill-opacity:1" id="path1395" d="m -394.36107,151.78074 c -0.37402,-0.23772 -1.2285,-0.24223 -2.78632,0.0942 l 14.14214,14.14214 c 1.55781,-0.3364 2.4123,-0.3319 2.78631,-0.0942 z"/> <path style="fill:url(#linearGradient1908);fill-opacity:1" id="path1397" d="m -397.14739,151.87491 c -2.72576,0.63298 -9.08208,4.04931 -9.73907,3.39232 l 14.14213,14.14213 c 0.657,0.65699 7.01331,-2.75934 9.73908,-3.39231 z"/> <path style="fill:url(#linearGradient1910);fill-opacity:1" id="path1399" d="m -406.88646,155.26723 c -0.24501,-0.24501 0.30261,-1.05652 2.12674,-2.79013 l 14.14214,14.14214 c -1.82414,1.73361 -2.37176,2.54511 -2.12675,2.79012 z"/> <path style="fill:url(#linearGradient1912);fill-opacity:1" id="path1401" d="m -404.75972,152.4771 c -3.30738,-0.76988 -7.82333,0.25915 -8.36082,5.17589 l 14.14214,14.14214 c 0.53749,-4.91674 5.05344,-5.94577 8.36082,-5.17589 z"/> <path style="fill:url(#linearGradient1914);fill-opacity:1" id="path1403" d="m -413.12054,157.65299 c 0.94755,-0.006 1.34776,0.0159 1.38906,0.0572 l 14.14214,14.14214 c -0.0413,-0.0413 -0.44151,-0.0637 -1.38906,-0.0572 z"/> <path style="fill:url(#linearGradient1916);fill-opacity:1" id="path1405" d="m -411.73148,157.71017 c 0.16192,0.16192 -5.19153,0.61506 -4.70778,0.76414 l 14.14214,14.14213 c -0.48375,-0.14908 4.8697,-0.60221 4.70778,-0.76413 z"/> <path style="fill:url(#linearGradient1918);fill-opacity:1" id="path1407" d="m -416.43926,158.47431 c 0.0597,0.0184 0.20815,0.0322 0.46676,0.0402 l 14.14214,14.14214 c -0.25861,-0.008 -0.40709,-0.0218 -0.46676,-0.0402 z"/> <path style="fill:url(#linearGradient1920);fill-opacity:1" id="path1409" d="m -415.9725,158.51448 c 4.07357,-3.7672 9.25517,-10.05743 7.45403,-11.85857 l 14.14213,14.14213 c 1.80115,1.80115 -3.38046,8.09137 -7.45402,11.85858 z"/> <path style="fill:url(#linearGradient1922);fill-opacity:1" id="path1411" d="m -408.51847,146.65591 c -0.6107,-0.6107 -2.02415,-0.70532 -4.55572,-0.0105 l 14.14214,14.14214 c 2.53157,-0.69478 3.94501,-0.60015 4.55571,0.0105 z"/> <path style="fill:url(#linearGradient1924);fill-opacity:1" id="path1413" d="m -413.07419,146.64536 c -0.0285,-0.0252 -0.0565,-0.0517 -0.0842,-0.0794 l 14.14213,14.14214 c 0.0277,0.0277 0.0558,0.0542 0.0842,0.0794 z"/> <path style="fill:url(#linearGradient1926);fill-opacity:1" id="path1415" d="m -413.1584,146.56595 c -1.53529,-1.53529 -1.93457,-6.80013 -3.76918,-8.5768 l 14.14213,14.14213 c 1.83462,1.77668 2.23389,7.04152 3.76918,8.57681 z"/> <path style="fill:url(#linearGradient1928);fill-opacity:1" id="path1417" d="m -416.92758,137.98915 c -0.89587,-0.86757 -2.13399,-0.90339 -4.01378,0.73296 l 14.14214,14.14214 c 1.87978,-1.63636 3.11791,-1.60054 4.01377,-0.73297 z"/> <path style="fill:url(#linearGradient1930);fill-opacity:1" id="path1419" d="m -420.94136,138.72211 c -5.6621,5.55457 -6.56629,15.11089 -15.79813,15.56092 l 14.14214,14.14214 c 9.23184,-0.45003 10.13603,-10.00635 15.79813,-15.56092 z"/> <path style="fill:url(#linearGradient1932);fill-opacity:1" id="path1421" d="m -436.73949,154.28303 c -4.63491,3.53981 -8.21811,0.33318 -13.00163,4.56025 l 14.14214,14.14214 c 4.78352,-4.22707 8.36672,-1.02044 13.00163,-4.56025 z"/> <path style="fill:url(#linearGradient1934);fill-opacity:1" id="path1423" d="m -449.74112,158.84328 c -5.63548,0.40408 -0.62839,6.21486 -5.45719,3.93345 l 14.14214,14.14214 c 4.8288,2.28141 -0.17829,-3.52937 5.45719,-3.93345 z"/> <path style="fill:url(#linearGradient1936);fill-opacity:1" id="path1425" d="m -455.19831,162.77673 c -3.23483,3.74922 -10.99841,5.13859 -15.4602,10.68016 l 14.14214,14.14214 c 4.46179,-5.54157 12.22537,-6.93094 15.4602,-10.68016 z"/> <path style="fill:url(#linearGradient1938);fill-opacity:1" id="path1427" d="m -470.65851,173.45689 c -1.8846,0.28489 -3.23349,-0.11511 -4.06755,-0.94917 l 14.14213,14.14213 c 0.83407,0.83407 2.18296,1.23406 4.06756,0.94918 z"/> <path style="fill:url(#linearGradient1940);fill-opacity:1" id="path1429" d="m -474.72606,172.50772 c -1.98283,-1.98283 -1.05606,-6.41884 2.49979,-9.93826 l 14.14214,14.14214 c -3.55586,3.51942 -4.48262,7.95543 -2.4998,9.93825 z"/> <path style="fill:url(#linearGradient1942);fill-opacity:1" id="path1431" d="m -472.22627,162.56946 c -0.19,-1.00017 -0.70655,-1.72181 -1.32061,-2.33587 l 14.14214,14.14214 c 0.61405,0.61405 1.1306,1.3357 1.32061,2.33587 z"/> <path style="fill:url(#linearGradient1944);fill-opacity:1" id="path1433" d="m -473.54688,160.23359 c -0.82611,-0.8261 -1.82869,-1.45749 -2.45006,-2.31036 l 14.14214,14.14213 c 0.62136,0.85288 1.62395,1.48426 2.45006,2.31037 z"/> <path style="fill:url(#linearGradient1946);fill-opacity:1" id="path1435" d="m -475.99694,157.92323 c -0.29213,-0.40098 -0.5,-0.85092 -0.56565,-1.39307 l 14.14214,14.14214 c 0.0656,0.54215 0.27351,0.99208 0.56565,1.39306 z"/> </g> <path style="color:black;font-style:normal;font-variant:normal;font-weight:normal;font-stretch:normal;font-size:medium;line-height:normal;font-family:sans-serif;font-variant-ligatures:normal;font-variant-position:normal;font-variant-caps:normal;font-variant-numeric:normal;font-variant-alternates:normal;font-feature-settings:normal;text-indent:0;text-align:start;text-decoration:none;text-decoration-line:none;text-decoration-style:solid;text-decoration-color:black;letter-spacing:normal;word-spacing:normal;text-transform:none;writing-mode:lr-tb;direction:ltr;text-orientation:mixed;dominant-baseline:auto;baseline-shift:baseline;text-anchor:start;white-space:normal;shape-padding:0;clip-rule:nonzero;display:inline;overflow:visible;visibility:visible;opacity:1;isolation:auto;mix-blend-mode:normal;color-interpolation:sRGB;color-interpolation-filters:linearRGB;solid-color:black;solid-opacity:1;vector-effect:none;fill:url(#linearGradient1649);fill-opacity:1;fill-rule:nonzero;stroke:none;stroke-width:0.26458332;stroke-linecap:butt;stroke-linejoin:miter;stroke-miterlimit:4;stroke-dasharray:none;stroke-dashoffset:0;stroke-opacity:1;color-rendering:auto;image-rendering:auto;shape-rendering:auto;text-rendering:auto;enable-background:accumulate" d="m -476.56259,156.53016 c -5.59849,1.83101 -2.79756,4.64932 -8.68307,7.64915 -2.87922,2.70346 -8.66868,5.5422 -9.77168,7.37268 -2.81854,0.10917 -9.81717,-0.81886 -9.40188,4.22674 5.44002,-1.82382 -3.39758,8.00223 2.63441,6.62943 -3.14155,4.36922 -7.60669,6.6412 -11.48684,10.78194 -1.58607,-2.59544 -5.16483,4.84403 -6.99286,0.96055 -0.44529,-2.07663 -1.41853,-5.41146 -4.9487,-1.1668 -2.48842,-0.5029 -5.57679,4.81689 -9.64842,4.79886 -4.05194,0.93493 -3.41332,7.52405 0.48103,4.42117 -1.51928,1.40817 -6.97722,3.29736 -6.11141,7.06893 4.41413,2.77786 -1.35371,11.97603 -3.8626,18.75415 -1.89736,6.77774 -9.43193,5.23048 -14.49069,11.42475 -6.70748,6.27353 -8.28976,13.83252 -13.36679,20.24182 -1.39734,4.0409 2.80456,8.00543 1.26761,12.72661 5.13434,-4.05157 4.99178,5.56024 11.17173,-3.00147 3.69259,-1.32947 -4.46764,12.33839 3.68263,6.02374 6.95227,-0.9673 12.43638,-5.09374 18.70976,-10.97276 2.65824,-4.02219 16.09327,-11.56217 10.52818,-3.2022 -0.4928,5.837 -0.45537,14.59511 8.04003,11.9955 6.9814,-2.63724 10.74806,5.56692 18.22684,0.81265 10.40743,-0.61607 0.82602,12.72386 4.60024,18.48696 5.37138,1.81357 15.22938,-6.22769 13.76547,4.08689 9.47916,3.62865 -0.96137,17.26575 -1.74545,25.66478 2.99579,7.50216 -5.16512,24.98918 9.65032,18.12279 13.84821,-6.86874 4.66852,19.07466 19.20064,12.51665 0.48827,9.05716 -5.42368,19.94293 4.34984,21.09728 3.54367,16.9648 -17.40122,21.4628 -24.39216,36.19904 -4.65097,5.14407 -20.73905,27.21641 -5.9897,18.18996 3.15965,5.52832 7.8367,10.54415 11.54122,8.12906 6.00345,7.60773 13.51752,14.92276 19.98103,23.77727 -12.67591,14.64462 6.326,17.30375 8.23787,0.42553 2.54672,-8.23573 0.31325,-14.80417 7.07791,-10.6961 11.606,-9.45244 15.96596,-24.13897 22.39069,-36.8833 12.49413,-9.37261 14.45355,-25.68244 12.35703,-38.83781 3.70428,-6.84358 -1.68171,-12.26866 6.34941,-11.26083 7.27698,-16.139 24.69044,-18.83648 35.32604,-29.4527 7.63905,-8.49981 21.46409,-4.14959 31.77787,-8.10829 5.91666,-9.3713 13.63426,-14.87944 15.59397,-25.20279 10.0467,-11.96757 11.11154,-24.49445 14.55759,-37.00067 5.21865,-13.61999 2.42508,-25.99049 2.25539,-38.13059 -9.74683,-9.75546 16.68863,-16.795 13.96636,-27.6758 3.80709,-8.83396 14.30328,-16.18223 17.83956,-24.75935 10.51109,-12.7434 4.6732,-25.79742 -4.95262,-32.95722 -10.90037,-0.86635 -24.5297,5.623 -33.58046,1.05873 -9.06093,-2.03256 -21.38852,-2.50636 -31.5339,4.22562 -7.0015,2.25081 -15.80881,0.59035 -21.27098,3.99967 -3.131,0.21274 -8.2447,3.77471 -9.52614,6.35379 7.60777,-9.10126 -6.92381,-7.86673 -14.19779,-6.1915 -6.76561,0.28743 -17.58474,1.94415 -20.76123,10.1585 -4.67259,-0.19684 9.49703,-9.46399 0.5699,-7.53625 -3.74227,0.86902 -14.32788,6.98447 -7.61233,0.60219 -3.30739,-0.76988 -7.82334,0.25914 -8.36082,5.17588 5.12027,-0.035 -5.74189,0.77188 -2.85196,0.8615 5.45475,-5.04451 12.89631,-14.61302 2.8983,-11.86913 -2.37568,-2.10645 -2.06839,-12.97109 -7.86716,-7.92324 -5.66211,5.55456 -6.56629,15.11089 -15.79813,15.56092 -4.63492,3.5398 -8.21811,0.33317 -13.00163,4.56024 -5.63548,0.40408 -0.6284,6.21486 -5.45719,3.93345 -3.23483,3.74922 -10.99842,5.1386 -15.4602,10.68016 -6.36486,0.96215 -6.61936,-5.88758 -1.56776,-10.88742 -0.5658,-2.97835 -4.02726,-3.48687 -4.33632,-6.03931 z" id="path929"/> </g> </g> </svg>